<svg xmlns="http://www.w3.org/2000/svg" version="1.1" xmlns:xlink="http://www.w3.org/1999/xlink" xmlns:svgjs="http://svgjs.dev/svgjs" width="1500" height="1500" viewBox="0 0 1500 1500"><rect width="1500" height="1500" fill="#000000"></rect><g transform="matrix(0.6666666666666666,0,0,0.6666666666666666,249.39393939393938,624.0167954532116)"><svg viewBox="0 0 396 100" data-background-color="#f1f1f1" preserveAspectRatio="xMidYMid meet" height="378" width="1500" xmlns="http://www.w3.org/2000/svg" xmlns:xlink="http://www.w3.org/1999/xlink"><g id="tight-bounds" transform="matrix(1,0,0,1,0.2400000000000091,-0.006664862385548531)"><svg viewBox="0 0 395.52 100.01332972477108" height="100.01332972477108" width="395.52"><g><svg viewBox="0 0 554.0605750063571 140.10275833233985" height="100.01332972477108" width="395.52"><g><rect width="8.47525287663421" height="140.10275833233985" x="127.87879627465959" y="0" fill="#ffffff" opacity="1" stroke-width="0" stroke="transparent" fill-opacity="1" class="rect-qz-0" data-fill-palette-color="primary" rx="1%" id="qz-0" data-palette-color="#bf666b"></rect></g><g transform="matrix(1,0,0,1,158.54057500635716,0.3485143242097877)"><svg viewBox="0 0 395.52 139.40572968392027" height="139.40572968392027" width="395.52"><g id="textblocktransform"><svg viewBox="0 0 395.52 139.40572968392027" height="139.40572968392027" width="395.52" id="textblock"><g><svg viewBox="0 0 395.52 93.98043788891448" height="93.98043788891448" width="395.52"><g transform="matrix(1,0,0,1,0,0)"><svg width="395.52" viewBox="3.85 -38.05 216.93 51.55" height="93.98043788891448" data-palette-color="#bf666b"><path d="M14.7-34.85Q20.4-34.85 24.58-32.73 28.75-30.6 30.98-26.65 33.2-22.7 33.2-17.35L33.2-17.35Q33.2-12 30.98-8.08 28.75-4.15 24.58-2.08 20.4 0 14.7 0L14.7 0 3.85 0 3.85-34.85 14.7-34.85ZM14.7-3.75Q21.45-3.75 25-7.33 28.55-10.9 28.55-17.35L28.55-17.35Q28.55-23.85 24.98-27.5 21.4-31.15 14.7-31.15L14.7-31.15 8.4-31.15 8.4-3.75 14.7-3.75ZM41.55-31.85Q40.25-31.85 39.35-32.75 38.45-33.65 38.45-34.95L38.45-34.95Q38.45-36.25 39.35-37.15 40.25-38.05 41.55-38.05L41.55-38.05Q42.8-38.05 43.67-37.15 44.55-36.25 44.55-34.95L44.55-34.95Q44.55-33.65 43.67-32.75 42.8-31.85 41.55-31.85L41.55-31.85ZM39.2-27.4L43.75-27.4 43.75 0 39.2 0 39.2-27.4ZM62.8-27.85Q66.35-27.85 69.02-26.3 71.7-24.75 73-22.4L73-22.4 73-27.4 77.6-27.4 77.6 0.6Q77.6 4.35 76 7.28 74.4 10.2 71.42 11.85 68.45 13.5 64.5 13.5L64.5 13.5Q59.1 13.5 55.5 10.95 51.9 8.4 51.25 4L51.25 4 55.75 4Q56.5 6.5 58.85 8.03 61.2 9.55 64.5 9.55L64.5 9.55Q68.25 9.55 70.62 7.2 73 4.85 73 0.6L73 0.6 73-5.15Q71.65-2.75 69-1.15 66.35 0.45 62.8 0.45L62.8 0.45Q59.15 0.45 56.17-1.35 53.2-3.15 51.5-6.4 49.8-9.65 49.8-13.8L49.8-13.8Q49.8-18 51.5-21.18 53.2-24.35 56.17-26.1 59.15-27.85 62.8-27.85L62.8-27.85ZM73-13.75Q73-16.85 71.75-19.15 70.5-21.45 68.37-22.68 66.25-23.9 63.7-23.9L63.7-23.9Q61.15-23.9 59.05-22.7 56.95-21.5 55.7-19.2 54.45-16.9 54.45-13.8L54.45-13.8Q54.45-10.65 55.7-8.33 56.95-6 59.05-4.78 61.15-3.55 63.7-3.55L63.7-3.55Q66.25-3.55 68.37-4.78 70.5-6 71.75-8.33 73-10.65 73-13.75L73-13.75ZM87.64-31.85Q86.34-31.85 85.44-32.75 84.54-33.65 84.54-34.95L84.54-34.95Q84.54-36.25 85.44-37.15 86.34-38.05 87.64-38.05L87.64-38.05Q88.89-38.05 89.77-37.15 90.64-36.25 90.64-34.95L90.64-34.95Q90.64-33.65 89.77-32.75 88.89-31.85 87.64-31.85L87.64-31.85ZM85.29-27.4L89.84-27.4 89.84 0 85.29 0 85.29-27.4ZM108.64 0.35Q105.19 0.35 102.47-0.88 99.74-2.1 98.19-4.28 96.64-6.45 96.59-9.3L96.59-9.3 101.44-9.3Q101.69-6.85 103.47-5.18 105.24-3.5 108.64-3.5L108.64-3.5Q111.89-3.5 113.77-5.13 115.64-6.75 115.64-9.3L115.64-9.3Q115.64-11.3 114.54-12.55 113.44-13.8 111.79-14.45 110.14-15.1 107.34-15.85L107.34-15.85Q103.89-16.75 101.82-17.65 99.74-18.55 98.27-20.48 96.79-22.4 96.79-25.65L96.79-25.65Q96.79-28.5 98.24-30.7 99.69-32.9 102.32-34.1 104.94-35.3 108.34-35.3L108.34-35.3Q113.24-35.3 116.37-32.85 119.49-30.4 119.89-26.35L119.89-26.35 114.89-26.35Q114.64-28.35 112.79-29.88 110.94-31.4 107.89-31.4L107.89-31.4Q105.04-31.4 103.24-29.93 101.44-28.45 101.44-25.8L101.44-25.8Q101.44-23.9 102.52-22.7 103.59-21.5 105.17-20.88 106.74-20.25 109.59-19.45L109.59-19.45Q113.04-18.5 115.14-17.57 117.24-16.65 118.74-14.73 120.24-12.8 120.24-9.5L120.24-9.5Q120.24-6.95 118.89-4.7 117.54-2.45 114.89-1.05 112.24 0.35 108.64 0.35L108.64 0.35ZM139.64-23.65L132.49-23.65 132.49-7.5Q132.49-5.5 133.34-4.67 134.19-3.85 136.29-3.85L136.29-3.85 139.64-3.85 139.64 0 135.54 0Q131.74 0 129.84-1.75 127.94-3.5 127.94-7.5L127.94-7.5 127.94-23.65 124.39-23.65 124.39-27.4 127.94-27.4 127.94-34.3 132.49-34.3 132.49-27.4 139.64-27.4 139.64-23.65ZM157.09 0.45Q153.24 0.45 150.11-1.3 146.99-3.05 145.21-6.28 143.44-9.5 143.44-13.75L143.44-13.75Q143.44-17.95 145.26-21.18 147.09-24.4 150.24-26.13 153.39-27.85 157.29-27.85L157.29-27.85Q161.19-27.85 164.34-26.13 167.49-24.4 169.31-21.2 171.14-18 171.14-13.75L171.14-13.75Q171.14-9.5 169.26-6.28 167.39-3.05 164.19-1.3 160.99 0.45 157.09 0.45L157.09 0.45ZM157.09-3.55Q159.54-3.55 161.69-4.7 163.84-5.85 165.16-8.15 166.49-10.45 166.49-13.75L166.49-13.75Q166.49-17.05 165.19-19.35 163.89-21.65 161.79-22.78 159.69-23.9 157.24-23.9L157.24-23.9Q154.74-23.9 152.66-22.78 150.59-21.65 149.34-19.35 148.09-17.05 148.09-13.75L148.09-13.75Q148.09-10.4 149.31-8.1 150.54-5.8 152.59-4.67 154.64-3.55 157.09-3.55L157.09-3.55ZM181.68-22.95Q182.88-25.3 185.11-26.6 187.33-27.9 190.53-27.9L190.53-27.9 190.53-23.2 189.33-23.2Q181.68-23.2 181.68-14.9L181.68-14.9 181.68 0 177.13 0 177.13-27.4 181.68-27.4 181.68-22.95ZM220.78-14.75Q220.78-13.45 220.63-12L220.63-12 198.73-12Q198.98-7.95 201.51-5.68 204.03-3.4 207.63-3.4L207.63-3.4Q210.58-3.4 212.56-4.78 214.53-6.15 215.33-8.45L215.33-8.45 220.23-8.45Q219.13-4.5 215.83-2.02 212.53 0.45 207.63 0.45L207.63 0.45Q203.73 0.45 200.66-1.3 197.58-3.05 195.83-6.28 194.08-9.5 194.08-13.75L194.08-13.75Q194.08-18 195.78-21.2 197.48-24.4 200.56-26.13 203.63-27.85 207.63-27.85L207.63-27.85Q211.53-27.85 214.53-26.15 217.53-24.45 219.16-21.48 220.78-18.5 220.78-14.75L220.78-14.75ZM216.08-15.7Q216.08-18.3 214.93-20.18 213.78-22.05 211.81-23.03 209.83-24 207.43-24L207.43-24Q203.98-24 201.56-21.8 199.13-19.6 198.78-15.7L198.78-15.7 216.08-15.7Z" opacity="1" transform="matrix(1,0,0,1,0,0)" fill="#ffffff" class="wordmark-text-0" data-fill-palette-color="primary" id="text-0"></path></svg></g></svg></g><g transform="matrix(1,0,0,1,0,116.16696374397786)"><svg viewBox="0 0 395.52 23.23876593994241" height="23.23876593994241" width="395.52"><g transform="matrix(1,0,0,1,0,0)"><svg width="395.52" viewBox="0.9 -36.15 729.22 42.85" height="23.23876593994241" data-palette-color="#575757"><path d="M0.9 0L6.95-34.3 18.65-34.3Q26.2-34.3 30.2-30.95 34.2-27.6 34.2-20.7L34.2-20.7Q34.2-14.4 31.83-9.73 29.45-5.05 25-2.53 20.55 0 14.6 0L14.6 0 0.9 0ZM6.4-4.15L14.35-4.15Q19.05-4.15 22.4-6.1 25.75-8.05 27.53-11.65 29.3-15.25 29.3-20.1L29.3-20.1Q29.3-25.4 26.63-27.78 23.95-30.15 18.9-30.15L18.9-30.15 10.95-30.15 6.4-4.15ZM42.25-31.4L43.1-36.15 47.45-36.15 46.6-31.4 42.25-31.4ZM36.75 0L41.4-26.3 45.8-26.3 41.15 0 36.75 0ZM57.8 0.6Q52.45 0.6 49.85-1.23 47.25-3.05 47.25-5.9L47.25-5.9Q47.25-6.95 47.6-8.2L47.6-8.2 51.95-8.2Q51.75-7.45 51.75-6.85L51.75-6.85Q51.75-4.9 53.3-3.95 54.85-3 57.45-3L57.45-3Q60.35-3 62.32-4.17 64.3-5.35 64.3-7.35L64.3-7.35Q64.3-8.6 63.47-9.43 62.65-10.25 61.42-10.73 60.2-11.2 58.05-11.85L58.05-11.85Q55.5-12.6 53.92-13.28 52.35-13.95 51.25-15.18 50.15-16.4 50.15-18.4L50.15-18.4Q50.15-20.95 51.57-22.88 53-24.8 55.47-25.85 57.95-26.9 61.05-26.9L61.05-26.9Q65.65-26.9 68.1-25.2 70.55-23.5 70.55-20.8L70.55-20.8Q70.55-20.3 70.42-19.65 70.3-19 70.2-18.75L70.2-18.75 65.9-18.75Q66.05-19.35 66.05-19.9L66.05-19.9Q66.05-21.4 64.9-22.33 63.75-23.25 61.15-23.25L61.15-23.25Q57.65-23.25 56.25-22.03 54.85-20.8 54.85-19.4L54.85-19.4Q54.85-17.9 56.25-17.15 57.65-16.4 60.65-15.6L60.65-15.6Q63.35-14.85 65-14.15 66.65-13.45 67.85-12.1 69.05-10.75 69.05-8.55L69.05-8.55Q69.05-4.05 65.82-1.73 62.6 0.6 57.8 0.6L57.8 0.6ZM83.39 0.6Q78.09 0.6 75.67-1.9 73.24-4.4 73.24-9.65L73.24-9.65Q73.24-14.15 74.57-18.05 75.89-21.95 78.84-24.43 81.79-26.9 86.34-26.9L86.34-26.9Q91.44-26.9 93.72-24.63 95.99-22.35 95.99-18.4L95.99-18.4Q95.99-17.75 95.89-16.55L95.89-16.55 91.39-16.55Q91.44-17.05 91.44-18L91.44-18Q91.44-20.45 90.37-21.85 89.29-23.25 86.49-23.25L86.49-23.25Q82.89-23.25 80.89-20.7 78.89-18.15 78.19-14.2L78.19-14.2Q77.84-12.15 77.84-9.9L77.84-9.9Q77.84-6.25 79.19-4.65 80.54-3.05 83.24-3.05L83.24-3.05Q86.34-3.05 88.14-4.98 89.94-6.9 90.49-9.75L90.49-9.75 94.74-9.75Q93.99-5.2 91.14-2.3 88.29 0.6 83.39 0.6L83.39 0.6ZM108.99 0.6Q103.94 0.6 101.12-2.15 98.29-4.9 98.29-9.8L98.29-9.8Q98.29-11.1 98.54-13.45L98.54-13.45Q99.54-20.25 102.94-23.58 106.34-26.9 112.19-26.9L112.19-26.9Q117.29-26.9 120.12-24.2 122.94-21.5 122.94-16.65L122.94-16.65Q122.94-15.85 122.64-12.85L122.64-12.85Q121.64-6.05 118.24-2.73 114.84 0.6 108.99 0.6L108.99 0.6ZM109.19-3.1Q113.14-3.1 115.29-5.55 117.44-8 118.24-13.45L118.24-13.45Q118.54-15.55 118.54-17.15L118.54-17.15Q118.44-20.15 116.82-21.7 115.19-23.25 111.99-23.25L111.99-23.25Q108.04-23.25 105.89-20.78 103.74-18.3 102.94-12.85L102.94-12.85Q102.69-11.1 102.69-9.15L102.69-9.15Q102.79-6.2 104.42-4.65 106.04-3.1 109.19-3.1L109.19-3.1ZM132.44 0L127.44-26.3 131.99-26.3 134.34-13.15Q134.84-10.35 135.44-4.9L135.44-4.9 135.69-4.9Q137.99-10.05 139.64-13.15L139.64-13.15 146.54-26.3 151.14-26.3 136.84 0 132.44 0ZM162.64 0.6Q156.79 0.6 153.91-1.95 151.04-4.5 151.04-9.8L151.04-9.8Q151.04-14.65 152.54-18.53 154.04-22.4 157.24-24.65 160.44-26.9 165.24-26.9L165.24-26.9Q170.24-26.9 172.89-24.6 175.54-22.3 175.54-17.85L175.54-17.85Q175.54-16.3 175.14-14.15L175.14-14.15 174.74-11.95 155.69-11.95Q155.54-11.25 155.54-10.05L155.54-10.05Q155.54-6.5 157.26-4.78 158.99-3.05 162.54-3.05L162.54-3.05Q165.39-3.05 167.41-4.5 169.44-5.95 169.94-8.95L169.94-8.95 174.24-8.95Q173.49-4.35 170.29-1.88 167.09 0.6 162.64 0.6L162.64 0.6ZM156.34-15.6L170.89-15.6Q171.09-16.3 171.09-17.55L171.09-17.55Q171.09-23.25 165.09-23.25L165.09-23.25Q161.69-23.25 159.46-21.28 157.24-19.3 156.34-15.6L156.34-15.6ZM178.43 0L183.08-26.3 186.43-26.3 186.23-22.35 186.53-22.35Q189.13-26.9 193.53-26.9L193.53-26.9Q194.88-26.9 195.83-26.5L195.83-26.5 195.08-22.25 193.23-22.25Q190.43-22.25 188.28-20.5 186.13-18.75 185.48-15.05L185.48-15.05 182.83 0 178.43 0ZM217.28 0L222.58-30.15 210.78-30.15 211.53-34.3 239.88-34.3 239.13-30.15 227.33-30.15 222.03 0 217.28 0ZM241.73 0.6Q237.88 0.6 235.68-1.83 233.48-4.25 233.48-8.95L233.48-8.95Q233.48-14.3 235.13-18.38 236.78-22.45 239.65-24.68 242.53-26.9 246.08-26.9L246.08-26.9Q248.83-26.9 250.53-26.05 252.23-25.2 253.18-23.3L253.18-23.3 253.48-23.3 255.03-26.3 258.38-26.3 257.13-19.65Q254.43-5 254.43-4.4L254.43-4.4Q254.43-3.05 255.93-3.05L255.93-3.05 257.93-3.05 257.43-0.2Q256.93 0.1 256.05 0.35 255.18 0.6 254.13 0.6L254.13 0.6Q250.48 0.6 250.48-3.15L250.48-3.15Q250.48-3.8 250.53-4.15L250.53-4.15 250.28-4.15Q248.93-1.85 246.63-0.63 244.33 0.6 241.73 0.6L241.73 0.6ZM242.83-3.05Q245.98-3.05 248.05-5.3 250.13-7.55 251.08-10.78 252.03-14 252.03-17.05L252.03-17.05Q252.03-20.15 250.75-21.7 249.48-23.25 246.68-23.25L246.68-23.25Q243.93-23.25 241.98-21.35 240.03-19.45 239.05-16.25 238.08-13.05 238.08-9.2L238.08-9.2Q238.08-3.05 242.83-3.05L242.83-3.05ZM260.87 0L267.22-36.15 271.62-36.15 265.27 0 260.87 0ZM283.97 0.6Q278.12 0.6 275.25-1.95 272.37-4.5 272.37-9.8L272.37-9.8Q272.37-14.65 273.87-18.53 275.37-22.4 278.57-24.65 281.77-26.9 286.57-26.9L286.57-26.9Q291.57-26.9 294.22-24.6 296.87-22.3 296.87-17.85L296.87-17.85Q296.87-16.3 296.47-14.15L296.47-14.15 296.07-11.95 277.02-11.95Q276.87-11.25 276.87-10.05L276.87-10.05Q276.87-6.5 278.6-4.78 280.32-3.05 283.87-3.05L283.87-3.05Q286.72-3.05 288.75-4.5 290.77-5.95 291.27-8.95L291.27-8.95 295.57-8.95Q294.82-4.35 291.62-1.88 288.42 0.6 283.97 0.6L283.97 0.6ZM277.67-15.6L292.22-15.6Q292.42-16.3 292.42-17.55L292.42-17.55Q292.42-23.25 286.42-23.25L286.42-23.25Q283.02-23.25 280.8-21.28 278.57-19.3 277.67-15.6L277.67-15.6ZM299.77 0L304.42-26.3 307.62-26.3 307.62-22.75 307.97-22.75Q309.47-24.6 311.82-25.75 314.17-26.9 316.57-26.9L316.57-26.9Q320.37-26.9 322.39-25.43 324.42-23.95 324.42-20.7L324.42-20.7Q324.42-19.45 324.07-17.45L324.07-17.45 321.02 0 316.62 0 319.62-17.15Q319.87-18.8 319.87-19.8L319.87-19.8Q319.87-21.7 318.84-22.48 317.82-23.25 315.97-23.25L315.97-23.25Q313.92-23.25 311.99-22.25 310.07-21.25 308.67-19.4 307.27-17.55 306.82-15.05L306.82-15.05 304.17 0 299.77 0ZM333.67 0.55Q331.17 0.55 330.07-0.6 328.97-1.75 328.97-3.6L328.97-3.6Q328.97-4.4 329.42-6.85L329.42-6.85 332.17-22.65 328.97-22.65 329.62-26.3 332.82-26.3 335.12-33.6 338.52-33.6 337.22-26.3 341.67-26.3 341.02-22.65 336.57-22.65 333.52-5.4Q333.47-5.15 333.47-4.75L333.47-4.75Q333.47-3.05 335.12-3.05L335.12-3.05 337.57-3.05 337.07-0.15Q336.42 0.15 335.44 0.35 334.47 0.55 333.67 0.55L333.67 0.55ZM341.41 6.7L344.61 0 342.61 0 343.56-5.4 348.56-5.4 347.71-0.45 344.01 6.7 341.41 6.7ZM384.51 0.6Q378.31 0.6 374.96-2.1 371.61-4.8 371.61-9.9L371.61-9.9Q371.61-11.4 371.91-13.05L371.91-13.05 375.61-34.3 380.36-34.3 376.61-12.8Q376.36-11.3 376.36-10.35L376.36-10.35Q376.36-6.95 378.43-5.2 380.51-3.45 384.36-3.45L384.36-3.45Q388.81-3.45 391.61-5.73 394.41-8 395.21-12.4L395.21-12.4 399.06-34.3 403.81-34.3 400.01-12.65Q397.66 0.6 384.51 0.6L384.51 0.6ZM405.36 0L410.01-26.3 413.21-26.3 413.21-22.75 413.56-22.75Q415.06-24.6 417.41-25.75 419.76-26.9 422.16-26.9L422.16-26.9Q425.96-26.9 427.98-25.43 430.01-23.95 430.01-20.7L430.01-20.7Q430.01-19.45 429.66-17.45L429.66-17.45 426.61 0 422.21 0 425.21-17.15Q425.46-18.8 425.46-19.8L425.46-19.8Q425.46-21.7 424.43-22.48 423.41-23.25 421.56-23.25L421.56-23.25Q419.51-23.25 417.58-22.25 415.66-21.25 414.26-19.4 412.86-17.55 412.41-15.05L412.41-15.05 409.76 0 405.36 0ZM433.15 0L439.5-36.15 443.9-36.15 437.55 0 433.15 0ZM455.4 0.6Q450.35 0.6 447.53-2.15 444.7-4.9 444.7-9.8L444.7-9.8Q444.7-11.1 444.95-13.45L444.95-13.45Q445.95-20.25 449.35-23.58 452.75-26.9 458.6-26.9L458.6-26.9Q463.7-26.9 466.53-24.2 469.35-21.5 469.35-16.65L469.35-16.65Q469.35-15.85 469.05-12.85L469.05-12.85Q468.05-6.05 464.65-2.73 461.25 0.6 455.4 0.6L455.4 0.6ZM455.6-3.1Q459.55-3.1 461.7-5.55 463.85-8 464.65-13.45L464.65-13.45Q464.95-15.55 464.95-17.15L464.95-17.15Q464.85-20.15 463.23-21.7 461.6-23.25 458.4-23.25L458.4-23.25Q454.45-23.25 452.3-20.78 450.15-18.3 449.35-12.85L449.35-12.85Q449.1-11.1 449.1-9.15L449.1-9.15Q449.2-6.2 450.83-4.65 452.45-3.1 455.6-3.1L455.6-3.1ZM482.6 0.6Q477.3 0.6 474.87-1.9 472.45-4.4 472.45-9.65L472.45-9.65Q472.45-14.15 473.77-18.05 475.1-21.95 478.05-24.43 481-26.9 485.55-26.9L485.55-26.9Q490.65-26.9 492.92-24.63 495.2-22.35 495.2-18.4L495.2-18.4Q495.2-17.75 495.1-16.55L495.1-16.55 490.6-16.55Q490.65-17.05 490.65-18L490.65-18Q490.65-20.45 489.57-21.85 488.5-23.25 485.7-23.25L485.7-23.25Q482.1-23.25 480.1-20.7 478.1-18.15 477.4-14.2L477.4-14.2Q477.05-12.15 477.05-9.9L477.05-9.9Q477.05-6.25 478.4-4.65 479.75-3.05 482.45-3.05L482.45-3.05Q485.55-3.05 487.35-4.98 489.15-6.9 489.7-9.75L489.7-9.75 493.95-9.75Q493.2-5.2 490.35-2.3 487.5 0.6 482.6 0.6L482.6 0.6ZM497.05 0L503.4-36.15 507.8-36.15 503.85-13.65 517.25-26.3 522.7-26.3 511.8-15.95 518.55 0 513.7 0 508.7-12.95 502.9-8.25 501.45 0 497.05 0ZM536.19 0L542.24-34.3 558.44-34.3Q563.14-34.3 565.54-31.9 567.94-29.5 567.94-25.3L567.94-25.3Q567.94-21.8 566.34-19.03 564.74-16.25 561.94-14.7 559.14-13.15 555.69-13.15L555.69-13.15 543.24-13.15 540.94 0 536.19 0ZM543.99-17.3L555.69-17.3Q558.84-17.3 560.96-19.4 563.09-21.5 563.09-24.95L563.09-24.95Q563.09-27.45 561.79-28.8 560.49-30.15 557.94-30.15L557.94-30.15 546.24-30.15 543.99-17.3ZM580.44 0.6Q575.39 0.6 572.56-2.15 569.74-4.9 569.74-9.8L569.74-9.8Q569.74-11.1 569.99-13.45L569.99-13.45Q570.99-20.25 574.39-23.58 577.79-26.9 583.64-26.9L583.64-26.9Q588.74-26.9 591.56-24.2 594.39-21.5 594.39-16.65L594.39-16.65Q594.39-15.85 594.09-12.85L594.09-12.85Q593.09-6.05 589.69-2.73 586.29 0.6 580.44 0.6L580.44 0.6ZM580.64-3.1Q584.59-3.1 586.74-5.55 588.89-8 589.69-13.45L589.69-13.45Q589.99-15.55 589.99-17.15L589.99-17.15Q589.89-20.15 588.26-21.7 586.64-23.25 583.44-23.25L583.44-23.25Q579.49-23.25 577.34-20.78 575.19-18.3 574.39-12.85L574.39-12.85Q574.14-11.1 574.14-9.15L574.14-9.15Q574.24-6.2 575.86-4.65 577.49-3.1 580.64-3.1L580.64-3.1ZM603.18 0.55Q600.68 0.55 599.58-0.6 598.48-1.75 598.48-3.6L598.48-3.6Q598.48-4.4 598.93-6.85L598.93-6.85 601.68-22.65 598.48-22.65 599.13-26.3 602.33-26.3 604.63-33.6 608.03-33.6 606.73-26.3 611.18-26.3 610.53-22.65 606.08-22.65 603.03-5.4Q602.98-5.15 602.98-4.75L602.98-4.75Q602.98-3.05 604.63-3.05L604.63-3.05 607.08-3.05 606.58-0.15Q605.93 0.15 604.96 0.35 603.98 0.55 603.18 0.55L603.18 0.55ZM622.98 0.6Q617.13 0.6 614.26-1.95 611.38-4.5 611.38-9.8L611.38-9.8Q611.38-14.65 612.88-18.53 614.38-22.4 617.58-24.65 620.78-26.9 625.58-26.9L625.58-26.9Q630.58-26.9 633.23-24.6 635.88-22.3 635.88-17.85L635.88-17.85Q635.88-16.3 635.48-14.15L635.48-14.15 635.08-11.95 616.03-11.95Q615.88-11.25 615.88-10.05L615.88-10.05Q615.88-6.5 617.61-4.78 619.33-3.05 622.88-3.05L622.88-3.05Q625.73-3.05 627.76-4.5 629.78-5.95 630.28-8.95L630.28-8.95 634.58-8.95Q633.83-4.35 630.63-1.88 627.43 0.6 622.98 0.6L622.98 0.6ZM616.68-15.6L631.23-15.6Q631.43-16.3 631.43-17.55L631.43-17.55Q631.43-23.25 625.43-23.25L625.43-23.25Q622.03-23.25 619.81-21.28 617.58-19.3 616.68-15.6L616.68-15.6ZM638.78 0L643.43-26.3 646.63-26.3 646.63-22.75 646.98-22.75Q648.48-24.6 650.83-25.75 653.18-26.9 655.58-26.9L655.58-26.9Q659.38-26.9 661.4-25.43 663.43-23.95 663.43-20.7L663.43-20.7Q663.43-19.45 663.08-17.45L663.08-17.45 660.03 0 655.63 0 658.63-17.15Q658.88-18.8 658.88-19.8L658.88-19.8Q658.88-21.7 657.85-22.48 656.83-23.25 654.98-23.25L654.98-23.25Q652.93-23.25 651-22.25 649.08-21.25 647.68-19.4 646.28-17.55 645.83-15.05L645.83-15.05 643.18 0 638.78 0ZM672.68 0.55Q670.18 0.55 669.08-0.6 667.98-1.75 667.98-3.6L667.98-3.6Q667.98-4.4 668.43-6.85L668.43-6.85 671.18-22.65 667.98-22.65 668.63-26.3 671.83-26.3 674.13-33.6 677.53-33.6 676.23-26.3 680.68-26.3 680.03-22.65 675.58-22.65 672.53-5.4Q672.48-5.15 672.48-4.75L672.48-4.75Q672.48-3.05 674.13-3.05L674.13-3.05 676.58-3.05 676.08-0.15Q675.43 0.15 674.45 0.35 673.48 0.55 672.68 0.55L672.68 0.55ZM685.97-31.4L686.82-36.15 691.17-36.15 690.32-31.4 685.97-31.4ZM680.47 0L685.12-26.3 689.52-26.3 684.87 0 680.47 0ZM700.22 0.6Q696.37 0.6 694.17-1.83 691.97-4.25 691.97-8.95L691.97-8.95Q691.97-14.3 693.62-18.38 695.27-22.45 698.15-24.68 701.02-26.9 704.57-26.9L704.57-26.9Q707.32-26.9 709.02-26.05 710.72-25.2 711.67-23.3L711.67-23.3 711.97-23.3 713.52-26.3 716.87-26.3 715.62-19.65Q712.92-5 712.92-4.4L712.92-4.4Q712.92-3.05 714.42-3.05L714.42-3.05 716.42-3.05 715.92-0.2Q715.42 0.1 714.55 0.35 713.67 0.6 712.62 0.6L712.62 0.6Q708.97 0.6 708.97-3.15L708.97-3.15Q708.97-3.8 709.02-4.15L709.02-4.15 708.77-4.15Q707.42-1.85 705.12-0.63 702.82 0.6 700.22 0.6L700.22 0.6ZM701.32-3.05Q704.47-3.05 706.55-5.3 708.62-7.55 709.57-10.78 710.52-14 710.52-17.05L710.52-17.05Q710.52-20.15 709.25-21.7 707.97-23.25 705.17-23.25L705.17-23.25Q702.42-23.25 700.47-21.35 698.52-19.45 697.55-16.25 696.57-13.05 696.57-9.2L696.57-9.2Q696.57-3.05 701.32-3.05L701.32-3.05ZM719.37 0L725.72-36.15 730.12-36.15 723.77 0 719.37 0Z" opacity="1" transform="matrix(1,0,0,1,0,0)" fill="#ffffff" class="slogan-text-1" data-fill-palette-color="secondary" id="text-1"></path></svg></g></svg></g></svg></g></svg></g><g transform="matrix(1,0,0,1,0,18.471259183119415)"><svg viewBox="0 0 105.69227041959621 103.16023996610102" height="103.16023996610102" width="105.69227041959621"><g><svg xmlns="http://www.w3.org/2000/svg" xmlns:xlink="http://www.w3.org/1999/xlink" version="1.1" x="0" y="0" viewBox="19.403705026499075 26.71765882202151 41.709722979074606 40.71049864251154" enable-background="new 0 0 100 100" xml:space="preserve" height="103.16023996610102" width="105.69227041959621" class="icon-icon-0" data-fill-palette-color="accent" id="icon-0"><g fill="#bf666b" data-fill-palette-color="accent"><path fill="#ffffff" d="M61.087 65.102c0 0-0.021-0.125-0.06-0.367-0.036-0.241-0.108-0.603-0.23-1.077-0.264-0.92-0.723-2.442-2.194-3.928-0.723-0.728-1.699-1.37-2.791-1.789-1.093-0.428-2.286-0.652-3.498-0.724-2.434-0.145-4.971 0.257-7.583 0.883-0.176 0.042-0.356 0.094-0.533 0.139 0.36-0.348 0.718-0.694 1.085-1.049 1.159-1.129 2.344-2.274 3.543-3.581 0.604-0.681 1.195-1.309 1.85-2.338 0.159-0.25 0.34-0.574 0.514-1.003l0.132-0.398 0.057-0.202c0.021-0.077 0.06-0.32 0.071-0.482 0.03-0.363 0.003-0.742-0.069-1.085l-0.055-0.228-0.01-0.038c0.078 0.161-0.496-1.172-0.395-0.826-0.186-0.274-0.458-0.554-0.684-0.72-0.195-0.143-0.412-0.27-0.636-0.369-0.265-0.117-0.324-0.119-0.492-0.169-0.137-0.036-0.306-0.07-0.42-0.085l-0.278-0.025c-0.207-0.014-0.342-0.01-0.462-0.004-0.523 0.027-0.822 0.095-1.123 0.157-1.13 0.263-1.943 0.567-2.802 0.877-0.842 0.311-1.653 0.633-2.457 0.959-1.58 0.654-3.166 1.312-4.752 1.969-2.419 1-4.841 1.997-7.187 2.82 1.172-1.105 2.403-2.18 3.587-3.189 2.182-1.845 4.32-3.545 6.314-5.093 3.993-3.095 7.413-5.59 9.81-7.322 2.401-1.708 3.773-2.683 3.773-2.683l0.076-0.054c0.037-0.026 0.073-0.053 0.109-0.081 1.777-1.368 2.109-3.918 0.742-5.695-1.368-1.778-3.918-2.109-5.695-0.741 0 0-1.371 1.056-3.772 2.903-2.378 1.858-5.757 4.524-9.738 7.857-1.99 1.669-4.128 3.504-6.353 5.533-1.112 1.016-2.245 2.082-3.388 3.225-1.143 1.153-2.294 2.349-3.447 3.812-0.575 0.761-1.16 1.502-1.749 2.801-0.143 0.342-0.292 0.727-0.4 1.273-0.051 0.28-0.097 0.558-0.092 0.965-0.012 0.332 0.06 0.84 0.191 1.284-0.004 0.008 0.243 0.649 0.145 0.389l0.016 0.035 0.032 0.07 0.075 0.156c0.072 0.142 0.153 0.282 0.241 0.418 0.403 0.609 0.677 0.811 1.031 1.103 0.683 0.498 1.296 0.689 1.809 0.814 0.998 0.207 1.654 0.148 2.268 0.1 0.605-0.06 1.119-0.162 1.617-0.272 0.991-0.224 1.872-0.504 2.739-0.797 3.421-1.195 6.548-2.648 9.679-4.078 0.391-0.18 0.781-0.359 1.173-0.539-0.73 0.761-1.463 1.517-2.181 2.293-0.541 0.589-1.076 1.182-1.612 1.837-0.268 0.326-0.54 0.681-0.821 1.092-0.149 0.236-0.289 0.438-0.458 0.791-0.043 0.091-0.071 0.133-0.123 0.266-0.05 0.129-0.095 0.26-0.135 0.393-0.072 0.141-0.184 0.857-0.106 1.339 0.26 1.001 0.079 0.296 0.141 0.528l0.012 0.032c-0.034-0.081 0.11 0.28 0.221 0.44 0.124 0.201 0.279 0.39 0.449 0.55 0.188 0.176 0.355 0.284 0.41 0.314 0.09 0.054 0.183 0.105 0.279 0.15 0.096 0.045 0.193 0.086 0.291 0.12 0.096 0.034 0.128 0.039 0.196 0.058 0.12 0.03 0.241 0.055 0.363 0.073 0.12 0.017 0.165 0.016 0.251 0.023 0.164 0.01 0.306 0.008 0.396 0.001 0.441-0.025 0.685-0.083 0.933-0.134 0.478-0.107 0.857-0.222 1.229-0.336 0.695-0.229 1.38-0.455 2.053-0.677 1.299-0.439 2.521-0.839 3.694-1.168 2.335-0.661 4.48-1.045 6.212-1.001 1.754 0.027 2.921 0.521 3.589 1.143 0.69 0.621 1.015 1.437 1.201 2.023 0.178 0.595 0.23 0.952 0.23 0.952 0.001 0.007 0.004 0.026 0.005 0.034 0.178 1.09 1.205 1.83 2.295 1.653C60.525 67.22 61.265 66.192 61.087 65.102zM37.797 59.978l0.028 0C37.777 59.984 37.751 59.985 37.797 59.978z" data-fill-palette-color="accent"></path></g></svg></g></svg></g></svg></g><defs></defs></svg><rect width="395.52" height="100.01332972477108" fill="none" stroke="none" visibility="hidden"></rect></g></svg></g></svg>