<svg id="visual" viewBox="0 0 900 600" width="900" height="600" xmlns="http://www.w3.org/2000/svg" xmlns:xlink="http://www.w3.org/1999/xlink" version="1.1"><path d="M0 151L82 151L82 241L164 241L164 253L245 253L245 283L327 283L327 199L409 199L409 103L491 103L491 169L573 169L573 259L655 259L655 181L736 181L736 115L818 115L818 253L900 253L900 121L900 0L900 0L818 0L818 0L736 0L736 0L655 0L655 0L573 0L573 0L491 0L491 0L409 0L409 0L327 0L327 0L245 0L245 0L164 0L164 0L82 0L82 0L0 0Z" fill="#f1f1f1"></path><path d="M0 289L82 289L82 343L164 343L164 373L245 373L245 361L327 361L327 325L409 325L409 181L491 181L491 277L573 277L573 319L655 319L655 247L736 247L736 229L818 229L818 373L900 373L900 265L900 119L900 251L818 251L818 113L736 113L736 179L655 179L655 257L573 257L573 167L491 167L491 101L409 101L409 197L327 197L327 281L245 281L245 251L164 251L164 239L82 239L82 149L0 149Z" fill="#e8cece"></path><path d="M0 439L82 439L82 451L164 451L164 457L245 457L245 475L327 475L327 457L409 457L409 409L491 409L491 427L573 427L573 427L655 427L655 415L736 415L736 445L818 445L818 499L900 499L900 415L900 263L900 371L818 371L818 227L736 227L736 245L655 245L655 317L573 317L573 275L491 275L491 179L409 179L409 323L327 323L327 359L245 359L245 371L164 371L164 341L82 341L82 287L0 287Z" fill="#dcabac"></path><path d="M0 523L82 523L82 541L164 541L164 529L245 529L245 553L327 553L327 499L409 499L409 499L491 499L491 517L573 517L573 529L655 529L655 499L736 499L736 547L818 547L818 547L900 547L900 523L900 413L900 497L818 497L818 443L736 443L736 413L655 413L655 425L573 425L573 425L491 425L491 407L409 407L409 455L327 455L327 473L245 473L245 455L164 455L164 449L82 449L82 437L0 437Z" fill="#ce898b"></path><path d="M0 601L82 601L82 601L164 601L164 601L245 601L245 601L327 601L327 601L409 601L409 601L491 601L491 601L573 601L573 601L655 601L655 601L736 601L736 601L818 601L818 601L900 601L900 601L900 521L900 545L818 545L818 545L736 545L736 497L655 497L655 527L573 527L573 515L491 515L491 497L409 497L409 497L327 497L327 551L245 551L245 527L164 527L164 539L82 539L82 521L0 521Z" fill="#bf666b"></path></svg>