<svg id="visual" viewBox="0 0 900 600" width="900" height="600" xmlns="http://www.w3.org/2000/svg" xmlns:xlink="http://www.w3.org/1999/xlink" version="1.1"><rect x="0" y="0" width="900" height="600" fill="#fdf1eb"></rect><path d="M0 115L21.5 137C43 159 86 203 128.8 204.5C171.7 206 214.3 165 257.2 173.2C300 181.3 343 238.7 385.8 255.7C428.7 272.7 471.3 249.3 514.2 244.3C557 239.3 600 252.7 642.8 253.3C685.7 254 728.3 242 771.2 220.2C814 198.3 857 166.7 878.5 150.8L900 135L900 601L878.5 601C857 601 814 601 771.2 601C728.3 601 685.7 601 642.8 601C600 601 557 601 514.2 601C471.3 601 428.7 601 385.8 601C343 601 300 601 257.2 601C214.3 601 171.7 601 128.8 601C86 601 43 601 21.5 601L0 601Z" fill="#fdf1eb"></path><path d="M0 273L21.5 283.2C43 293.3 86 313.7 128.8 313.7C171.7 313.7 214.3 293.3 257.2 276.3C300 259.3 343 245.7 385.8 241C428.7 236.3 471.3 240.7 514.2 250C557 259.3 600 273.7 642.8 282.7C685.7 291.7 728.3 295.3 771.2 294.2C814 293 857 287 878.5 284L900 281L900 601L878.5 601C857 601 814 601 771.2 601C728.3 601 685.7 601 642.8 601C600 601 557 601 514.2 601C471.3 601 428.7 601 385.8 601C343 601 300 601 257.2 601C214.3 601 171.7 601 128.8 601C86 601 43 601 21.5 601L0 601Z" fill="#dad0bc"></path><path d="M0 370L21.5 371.5C43 373 86 376 128.8 381.5C171.7 387 214.3 395 257.2 378.2C300 361.3 343 319.7 385.8 319.5C428.7 319.3 471.3 360.7 514.2 377.3C557 394 600 386 642.8 372.8C685.7 359.7 728.3 341.3 771.2 345.2C814 349 857 375 878.5 388L900 401L900 601L878.5 601C857 601 814 601 771.2 601C728.3 601 685.7 601 642.8 601C600 601 557 601 514.2 601C471.3 601 428.7 601 385.8 601C343 601 300 601 257.2 601C214.3 601 171.7 601 128.8 601C86 601 43 601 21.5 601L0 601Z" fill="#a8b596"></path><path d="M0 402L21.5 396C43 390 86 378 128.8 377.3C171.7 376.7 214.3 387.3 257.2 405.3C300 423.3 343 448.7 385.8 449.3C428.7 450 471.3 426 514.2 418.5C557 411 600 420 642.8 425.8C685.7 431.7 728.3 434.3 771.2 425.7C814 417 857 397 878.5 387L900 377L900 601L878.5 601C857 601 814 601 771.2 601C728.3 601 685.7 601 642.8 601C600 601 557 601 514.2 601C471.3 601 428.7 601 385.8 601C343 601 300 601 257.2 601C214.3 601 171.7 601 128.8 601C86 601 43 601 21.5 601L0 601Z" fill="#699b82"></path><path d="M0 501L21.5 501.5C43 502 86 503 128.8 507.5C171.7 512 214.3 520 257.2 517.8C300 515.7 343 503.3 385.8 503.7C428.7 504 471.3 517 514.2 521.2C557 525.3 600 520.7 642.8 507.5C685.7 494.3 728.3 472.7 771.2 465.8C814 459 857 467 878.5 471L900 475L900 601L878.5 601C857 601 814 601 771.2 601C728.3 601 685.7 601 642.8 601C600 601 557 601 514.2 601C471.3 601 428.7 601 385.8 601C343 601 300 601 257.2 601C214.3 601 171.7 601 128.8 601C86 601 43 601 21.5 601L0 601Z" fill="#008080"></path></svg>