<svg id="visual" viewBox="0 0 900 600" width="900" height="600" xmlns="http://www.w3.org/2000/svg" xmlns:xlink="http://www.w3.org/1999/xlink" version="1.1"><path d="M0 139L100 139L100 163L200 163L200 115L300 115L300 169L400 169L400 103L500 103L500 145L600 145L600 175L700 175L700 139L800 139L800 139L900 139L900 139L900 0L900 0L800 0L800 0L700 0L700 0L600 0L600 0L500 0L500 0L400 0L400 0L300 0L300 0L200 0L200 0L100 0L100 0L0 0Z" fill="#fdf1eb"></path><path d="M0 343L100 343L100 361L200 361L200 307L300 307L300 349L400 349L400 307L500 307L500 373L600 373L600 331L700 331L700 313L800 313L800 343L900 343L900 391L900 137L900 137L800 137L800 137L700 137L700 173L600 173L600 143L500 143L500 101L400 101L400 167L300 167L300 113L200 113L200 161L100 161L100 137L0 137Z" fill="#dad0bc"></path><path d="M0 403L100 403L100 409L200 409L200 379L300 379L300 421L400 421L400 379L500 379L500 463L600 463L600 403L700 403L700 385L800 385L800 415L900 415L900 445L900 389L900 341L800 341L800 311L700 311L700 329L600 329L600 371L500 371L500 305L400 305L400 347L300 347L300 305L200 305L200 359L100 359L100 341L0 341Z" fill="#a8b596"></path><path d="M0 511L100 511L100 487L200 487L200 463L300 463L300 511L400 511L400 481L500 481L500 523L600 523L600 469L700 469L700 493L800 493L800 475L900 475L900 505L900 443L900 413L800 413L800 383L700 383L700 401L600 401L600 461L500 461L500 377L400 377L400 419L300 419L300 377L200 377L200 407L100 407L100 401L0 401Z" fill="#699b82"></path><path d="M0 601L100 601L100 601L200 601L200 601L300 601L300 601L400 601L400 601L500 601L500 601L600 601L600 601L700 601L700 601L800 601L800 601L900 601L900 601L900 503L900 473L800 473L800 491L700 491L700 467L600 467L600 521L500 521L500 479L400 479L400 509L300 509L300 461L200 461L200 485L100 485L100 509L0 509Z" fill="#008080"></path></svg>